# Blender v2.79 (sub 0) OBJ File: ''
# www.blender.org
mtllib second.mtl
o minute_hand_clock_texture
v 0.010026 7.233158 0.845841
v 0.002468 7.270388 0.846233
v 0.010026 7.233158 0.845841
v 0.002468 7.202076 0.843755
v 0.002468 7.270388 0.845841
v 0.013825 7.177217 0.843755
v -0.005089 7.233158 0.845841
v -0.005089 7.233158 0.845841
v -0.008889 7.177217 0.843755
v -0.008889 7.177217 0.847611
v 0.006746 6.912175 0.845841
v 0.013825 7.177217 0.847611
v 0.006746 6.912175 0.845841
v 0.002468 7.202076 0.851796
v 0.002468 6.874945 0.846233
v 0.002468 6.874945 0.845841
v -0.001809 6.912175 0.845841
v -0.001809 6.912175 0.845841
vt 0.615639 0.703156
vt 0.609236 0.706846
vt 0.615639 0.703156
vt 0.609572 0.724827
vt 0.603175 0.716766
vt 0.603171 0.734478
vt 0.609572 0.724827
vt 0.612746 0.710389
vt 0.596771 0.724818
vt 0.596771 0.724818
vt 0.593608 0.710380
vt 0.593578 0.710431
vt 0.606712 0.643673
vt 0.612759 0.710440
vt 0.606712 0.643673
vt 0.612779 0.672155
vt 0.609224 0.700129
vt 0.609236 0.668646
vt 0.603171 0.634500
vt 0.599630 0.643679
vt 0.599630 0.643679
vt 0.605696 0.672157
vt 0.599645 0.697656
vt 0.603170 0.634488
vt 0.602837 0.703152
vt 0.609237 0.706842
vt 0.603170 0.734488
vt 0.618825 0.697660
vn 0.0064 0.0013 1.0000
vn 0.9800 0.1990 -0.0001
vn 0.0000 0.0000 1.0000
vn 0.1433 0.0316 -0.9892
vn 0.1001 0.0424 -0.9941
vn 0.1487 0.0302 -0.9884
vn 0.0436 0.0030 0.9990
vn 0.9977 0.0678 -0.0003
vn -0.0064 0.0013 1.0000
vn -0.9800 0.1989 0.0004
vn -0.1433 0.0316 -0.9892
vn -0.1001 0.0424 -0.9941
vn -0.0954 0.0436 -0.9945
vn -0.0436 0.0030 0.9990
vn -0.9977 0.0678 0.0000
vn 0.0092 0.0002 1.0000
vn 0.9996 -0.0267 0.0002
vn 0.0063 -0.0010 1.0000
vn 0.2342 -0.0165 0.9720
vn 0.3142 -0.0149 0.9492
vn 0.2330 -0.0165 0.9723
vn 0.9935 -0.1142 0.0004
vn -0.0092 0.0002 1.0000
vn -0.9996 -0.0267 0.0000
vn -0.0064 -0.0010 1.0000
vn -0.2343 -0.0165 0.9720
vn -0.3142 -0.0149 0.9492
vn -0.3170 -0.0148 0.9483
vn -0.9935 -0.1141 0.0002
vn 0.4521 0.0605 0.8899
vn 0.4166 0.0723 0.9062
vn 0.4115 0.0740 0.9084
vn -0.4522 0.0605 0.8899
vn -0.4167 0.0723 0.9062
vn -0.4565 0.0591 0.8878
vn 0.0000 -0.0074 -1.0000
vn -0.0544 -0.0064 -0.9985
vn 0.0163 -0.0074 -0.9998
vn 0.0544 -0.0064 -0.9985
vn 0.0000 -0.0064 -1.0000
vn 0.9800 0.1990 0.0000
vn 0.0954 0.0436 -0.9945
vn 0.9977 0.0678 0.0000
vn -0.9800 0.1989 0.0000
vn -0.1487 0.0302 -0.9884
vn 0.9996 -0.0267 0.0000
vn 0.3170 -0.0148 0.9483
vn 0.9935 -0.1142 0.0000
vn -0.2331 -0.0165 0.9723
vn -0.9935 -0.1141 0.0000
vn 0.4564 0.0591 0.8878
vn -0.4116 0.0740 0.9084
vn -0.0163 -0.0074 -0.9998
usemtl clock_texture
s 1
f 1/1/1 2/2/2 3/3/3
f 1/4/4 4/5/5 5/6/6
f 3/7/7 6/8/8 1/4/3
f 7/9/9 5/6/10 8/10/3
f 8/10/11 4/5/12 9/11/13
f 8/10/14 10/12/15 7/9/3
f 11/13/16 12/14/17 13/15/18
f 13/16/19 14/17/20 15/18/21
f 13/15/18 16/19/22 11/13/16
f 17/20/23 9/11/24 18/21/25
f 17/22/26 14/17/27 10/23/28
f 18/21/25 15/24/29 17/20/23
f 14/17/30 3/3/31 2/2/32
f 14/17/33 7/25/34 10/23/35
f 4/5/36 18/21/37 9/11/38
f 4/5/36 11/13/39 16/19/40
f 1/1/1 5/26/41 2/2/2
f 1/4/4 6/8/42 4/5/5
f 3/7/7 12/14/43 6/8/8
f 7/9/9 2/27/44 5/6/10
f 8/10/11 5/6/45 4/5/12
f 8/10/14 9/11/15 10/12/15
f 11/13/16 6/8/46 12/14/17
f 13/16/19 12/28/47 14/17/20
f 13/15/18 15/24/48 16/19/22
f 17/20/23 10/12/24 9/11/24
f 17/22/26 15/18/49 14/17/27
f 18/21/25 16/19/50 15/24/29
f 14/17/30 12/28/51 3/3/31
f 14/17/33 2/2/52 7/25/34
f 4/5/36 16/19/40 18/21/37
f 4/5/36 6/8/53 11/13/39
